<svg width="48" height="48" viewBox="0 0 48 48" fill="none" xmlns="http://www.w3.org/2000/svg">
<rect x="3" y="3" width="42" height="42" rx="4" fill="#A7FF83"/>
<path d="M22.2167 23.1569L12.7378 13.4184C11.7541 12.4077 11.7541 10.769 12.7378 9.75818C13.7223 8.74708 15.3173 8.74747 16.3008 9.75818L23.9984 17.6675L31.6991 9.75818C32.6836 8.74771 34.2783 8.74771 35.2621 9.75882C36.2456 10.7695 36.2453 12.4083 35.2615 13.4191L25.7795 23.1576C25.2876 23.6626 24.643 23.9153 23.9984 23.9153C23.3535 23.9153 22.7086 23.6623 22.2167 23.1569ZM31.6994 19.4954C32.6838 18.4849 34.2784 18.4852 35.2626 19.4963C36.2461 20.507 36.2458 22.1458 35.2619 23.1566L26.5173 32.1369V39.4117C26.5173 40.841 25.3893 42 23.998 42C22.6066 42 21.4786 40.8411 21.4786 39.4117V32.1365L12.7378 23.1555C11.7541 22.1448 11.7541 20.506 12.7378 19.4952C13.7223 18.4841 15.3173 18.4845 16.3008 19.4952L23.9984 27.4038L31.6994 19.4954Z" fill="#0B2981"/>
</svg>
